<svg xmlns="http://www.w3.org/2000/svg" width="107.131" height="31.023" viewBox="0 0 107.131 31.023">
    <defs>
        <clipPath id="clip-path">
            <path id="Clip_2" d="M16.631 31.023h-5.87v-5.715H7.744C2.39 25.308.182 20.652 0 17.523v-.064-.1a8.415 8.415 0 0 1 7.515-8.708c.1-.008.187-.012.27-.012h2.976V6.588a6.614 6.614 0 0 1 1.857-4.577A7.162 7.162 0 0 1 17.892 0h.089a7.187 7.187 0 0 1 4.9 1.911 7.207 7.207 0 0 1 2.11 5.43 6.985 6.985 0 0 1-2.156 5.4 7.236 7.236 0 0 1-4.773 1.745c-.09 0-.178 0-.261-.005h-1.17v4.989h5.095v5.84h-5.095v5.714zM7.988 14.479c-1.3 0-2.087 1.039-2.119 2.778.065.665.376 2.21 1.875 2.21h3.017v-4.988zm10.13-8.941A1.475 1.475 0 0 0 16.651 6.7v2.118h.008a3.657 3.657 0 0 0 2.505-.63 1.4 1.4 0 0 0 .359-1.095v-.014c0-1.022-.473-1.54-1.405-1.54z" class="cls-1"/>
        </clipPath>
        <style>
            .cls-1{fill:#888}
        </style>
    </defs>
    <g id="ic_award_grandprix">
        <g id="Group_3">
            <path id="Clip_2-2" d="M16.631 31.023h-5.87v-5.715H7.744C2.39 25.308.182 20.652 0 17.523v-.064-.1a8.415 8.415 0 0 1 7.515-8.708c.1-.008.187-.012.27-.012h2.976V6.588a6.614 6.614 0 0 1 1.857-4.577A7.162 7.162 0 0 1 17.892 0h.089a7.187 7.187 0 0 1 4.9 1.911 7.207 7.207 0 0 1 2.11 5.43 6.985 6.985 0 0 1-2.156 5.4 7.236 7.236 0 0 1-4.773 1.745c-.09 0-.178 0-.261-.005h-1.17v4.989h5.095v5.84h-5.095v5.714zM7.988 14.479c-1.3 0-2.087 1.039-2.119 2.778.065.665.376 2.21 1.875 2.21h3.017v-4.988zm10.13-8.941A1.475 1.475 0 0 0 16.651 6.7v2.118h.008a3.657 3.657 0 0 0 2.505-.63 1.4 1.4 0 0 0 .359-1.095v-.014c0-1.022-.473-1.54-1.405-1.54z" class="cls-1"/>
            <g id="Group_3-2" clip-path="url(#clip-path)">
                <path id="Fill_1" d="M0 43.5h37.544V0H0z" class="cls-1" transform="translate(-6.279 -6.24)"/>
            </g>
        </g>
        <g id="Group_12" transform="translate(37.674 3.744)">
            <path id="Fill_4" d="M30.5 6.659h-1.778a.688.688 0 0 1-.5-.21l-.442-.437a.717.717 0 0 1-.211-.5V3.915a.709.709 0 0 1 .211-.5l.9-.887-.707-.7a.7.7 0 0 1 .01-.989l.6-.6a.68.68 0 0 1 .5-.21.671.671 0 0 1 .491.2l.613.609a.672.672 0 0 1 .211.488.649.649 0 0 1-.181.473l-.736.716 2.335 2.325.8-.809.4.4-.306.311-.19.193c-.215.22-.3.3-.3.305l1.02 1.02-.387.4-1.035-1.019-.818.808a.688.688 0 0 1-.5.21zm-1.425-3.734l-.858.849a.186.186 0 0 0-.059.141v1.594a.19.19 0 0 0 .059.142l.392.389a.207.207 0 0 0 .142.059h1.708a.191.191 0 0 0 .141-.059l.806-.8-2.332-2.315zm-.01-2.316a.2.2 0 0 0-.142.058l-.515.521a.2.2 0 0 0 0 .279l.667.657.653-.657a.2.2 0 0 0 0-.279L29.2.668a.192.192 0 0 0-.135-.059zm-7.829 6.05h-1.77a.707.707 0 0 1-.511-.22l-.692-.686.388-.381.677.667a.206.206 0 0 0 .149.059h1.75a.2.2 0 0 0 .147-.059l.422-.418a.177.177 0 0 0 .054-.141V3.354l-.554.551a.734.734 0 0 1-.51.22h-1.321a.725.725 0 0 1-.511-.22l-.471-.473a.64.64 0 0 1-.191-.478V1.171a.658.658 0 0 1 .191-.483l.471-.468a.707.707 0 0 1 .511-.22h1.77a.683.683 0 0 1 .51.22l.471.468a.655.655 0 0 1 .193.483V5.49a.65.65 0 0 1-.193.481l-.471.468a.683.683 0 0 1-.51.22zm-1.76-6.1a.205.205 0 0 0-.149.058l-.421.419a.2.2 0 0 0-.054.15v1.749a.2.2 0 0 0 .054.151l.421.419a.205.205 0 0 0 .149.058h1.3a.2.2 0 0 0 .148-.058l.872-.868a.182.182 0 0 0 .054-.141V1.179a.173.173 0 0 0-.054-.14l-.424-.42a.2.2 0 0 0-.147-.058zm-3.434 6.1h-3.558V6.1h1.5V.6l-1.1.98-.393-.392L13.819 0h.726v6.1h1.5v.559zm-6.98 0H7.29a.707.707 0 0 1-.511-.22l-.471-.468a.653.653 0 0 1-.191-.481V1.171a.658.658 0 0 1 .191-.483L6.779.22A.707.707 0 0 1 7.29 0h1.77a.686.686 0 0 1 .51.22l.471.468a.658.658 0 0 1 .191.483V5.49a.653.653 0 0 1-.191.481l-.471.468a.686.686 0 0 1-.51.22zM7.3.561a.2.2 0 0 0-.147.058l-.422.419a.175.175 0 0 0-.054.14v4.3a.179.179 0 0 0 .054.141l.422.418A.2.2 0 0 0 7.3 6.1h1.75a.2.2 0 0 0 .15-.06l.421-.418a.192.192 0 0 0 .054-.151V1.179a.175.175 0 0 0-.054-.14L9.2.619a.2.2 0 0 0-.15-.058zm-3.154 6.1H.029v-2a.657.657 0 0 1 .412-.639l3.022-1.336a.182.182 0 0 0 .122-.18V1.179a.18.18 0 0 0-.054-.14l-.422-.42a.2.2 0 0 0-.146-.058H1.212a.205.205 0 0 0-.148.058l-.677.668L0 .907.692.22A.705.705 0 0 1 1.2 0h1.773a.685.685 0 0 1 .509.22l.472.468a.647.647 0 0 1 .192.483v1.373a.651.651 0 0 1-.413.639L.711 4.544a.183.183 0 0 0-.122.18V6.1h3.556v.559z" class="cls-1" transform="translate(.957 .829)"/>
            <path id="Fill_6" d="M8.934 6.66h-.929L6.633 0h.652l1.227 6.117L9.758 0h.981l1.207 6.117L13.211 0h.589l-1.4 6.658h-.924L10.209.507 8.934 6.659zm-8.311 0H0L2.552 0h.986l2.531 6.658h-.643l-.735-1.904H1.345L.624 6.659zm2.4-6.309L1.59 4.154h2.86z" class="cls-1" transform="translate(35.314 .829)"/>
            <path id="Fill_8" d="M8.379 6.66h-.623V0h3.566a.639.639 0 0 1 .478.2l.524.517a.685.685 0 0 1 .211.5v1.239a.663.663 0 0 1-.211.5l-.515.512a.667.667 0 0 1-.49.2h-.24l1.947 2.992h-.72l-1.85-2.906a.2.2 0 0 0-.172-.087H8.379v2.992zm0-6.041v2.427h2.894a.2.2 0 0 0 .142-.064l.44-.438a.184.184 0 0 0 .059-.137V1.248a.213.213 0 0 0-.059-.142l-.43-.428a.2.2 0 0 0-.143-.058zM.623 6.66H0L2.551 0h.986l2.53 6.658h-.642l-.736-1.906H1.344L.623 6.659zM3.021.351L1.59 4.154h2.86zm15.227 6.308H15V0h3.248a.684.684 0 0 1 .5.21l.823.819a.682.682 0 0 1 .211.5v3.604a.682.682 0 0 1-.211.5l-.823.82a.687.687 0 0 1-.5.206zM15.624.619v5.42H18.2a.194.194 0 0 0 .142-.058l.756-.751a.193.193 0 0 0 .059-.141v-3.52a.193.193 0 0 0-.059-.141l-.756-.75A.192.192 0 0 0 18.2.619z" class="cls-1" transform="translate(49.673 .829)"/>
            <path id="Fill_10" d="M46.592 6.66h-.623V0h3.567a.638.638 0 0 1 .481.2l.525.517a.687.687 0 0 1 .211.5v1.24a.671.671 0 0 1-.211.5l-.515.512a.664.664 0 0 1-.491.2h-.241l1.947 2.992h-.72l-1.85-2.907a.2.2 0 0 0-.171-.088h-1.909v2.993zm0-6.041v2.427h2.894a.2.2 0 0 0 .142-.062l.442-.44a.188.188 0 0 0 .059-.136v-1.16a.218.218 0 0 0-.059-.141l-.431-.429A.206.206 0 0 0 49.5.619zM22.575 6.66h-.623V0h1.024l3.145 6.069V0h.623v6.658h-1.025L22.575.59v6.069zm-14.157 0h-.623V0h3.565a.637.637 0 0 1 .481.2l.525.517a.684.684 0 0 1 .211.5v1.24a.668.668 0 0 1-.211.5l-.515.512a.668.668 0 0 1-.491.2h-.24l1.947 2.992h-.72L10.5 3.754a.2.2 0 0 0-.172-.088h-1.91v2.993zm0-6.041v2.427h2.894a.2.2 0 0 0 .143-.062l.441-.44a.187.187 0 0 0 .059-.136v-1.16a.217.217 0 0 0-.059-.141l-.433-.429a.2.2 0 0 0-.142-.059zm6.4 6.041H14.2L16.747 0h.986l2.529 6.658h-.641l-.737-1.905H15.54l-.722 1.905zm2.4-6.309l-1.433 3.8h2.859zM57.565 6.66h-.731l2.071-3.325L56.834 0h.742l1.668 2.754L60.911 0h.735l-2.069 3.325 2.078 3.333h-.753l-1.659-2.753-1.678 2.754zm-1.858 0h-3.194V6.1H53.8V.561h-1.287V0h3.193v.561h-1.284V6.1h1.284v.559zm-15.727 0h-.624V0h3.567a.628.628 0 0 1 .477.2l.525.517a.687.687 0 0 1 .212.5v1.24a.671.671 0 0 1-.212.5l-.515.512a.661.661 0 0 1-.49.2h-2.94v2.989zm0-6.04v2.426h2.894a.2.2 0 0 0 .142-.062l.442-.44a.188.188 0 0 0 .059-.136v-1.16a.218.218 0 0 0-.059-.141l-.433-.429a.206.206 0 0 0-.142-.059zm-7.457 6.04h-3.248V0h3.248a.688.688 0 0 1 .5.21l.825.819a.681.681 0 0 1 .211.5v3.604a.679.679 0 0 1-.211.5l-.825.818a.688.688 0 0 1-.5.208zM29.9.619V6.04h2.581a.2.2 0 0 0 .142-.058l.756-.751a.193.193 0 0 0 .059-.141V1.57a.2.2 0 0 0-.059-.142l-.756-.75a.2.2 0 0 0-.142-.059zM5.685 6.659h-.653L4.8 5.611l-.844.839a.676.676 0 0 1-.486.21H1.535a.679.679 0 0 1-.5-.21l-.824-.819A.676.676 0 0 1 0 5.133V1.526a.678.678 0 0 1 .211-.5L1.035.21a.679.679 0 0 1 .5-.21h2.35a.676.676 0 0 1 .485.21l1.011 1.01-.442.427-.971-.969a.208.208 0 0 0-.143-.059H1.573a.191.191 0 0 0-.137.059l-.754.75a.19.19 0 0 0-.059.142v3.52a.186.186 0 0 0 .059.141l.754.751a.191.191 0 0 0 .137.058h1.84a.2.2 0 0 0 .143-.058L4.739 4.8a.187.187 0 0 0 .061-.14V3.631H2.811v-.619h2.614V5.4l.26 1.257z" class="cls-1" transform="translate(.987 15.805)"/>
        </g>
    </g>
</svg>
