<svg xmlns="http://www.w3.org/2000/svg" width="32" height="32" viewBox="0 0 32 32">
    <defs>
        <clipPath id="a21buuye3a">
            <path fill="#a0a0a0" d="M11.5-1.752l.025.025 8.309-8.736.046-.044.212-.216A5.181 5.181 0 0 0 21.5-14.25a5 5 0 0 0-5-5 5 5 0 0 0-4.547 2.917h-.907A5 5 0 0 0 6.5-19.25a5 5 0 0 0-5 5 5.181 5.181 0 0 0 1.408 3.523l.212.216.046.044 8.309 8.736.025-.025zm0 1.179l-.025.025-9.142-9.609-.085-.1A5.813 5.813 0 0 1 .667-14.25 5.833 5.833 0 0 1 6.5-20.083a5.83 5.83 0 0 1 5 2.827 5.83 5.83 0 0 1 5-2.827 5.833 5.833 0 0 1 5.833 5.833 5.813 5.813 0 0 1-1.582 3.994l-.085.1-9.141 9.607-.025-.025z" clip-rule="evenodd"/>
        </clipPath>
    </defs>
    <path fill="none" d="M0 0H32V32H0z"/>
    <g>
        <g clip-path="url(#a21buuye3a)" transform="translate(4.333 27.083)">
            <path fill="#a0a0a0" d="M-4.333-25.083h31.666V4.451H-4.333z"/>
        </g>
    </g>
</svg>
