<svg xmlns="http://www.w3.org/2000/svg" width="9" height="9" viewBox="0 0 9 9">
    <g>
        <path fill="none" d="M0 0H9V9H0z"/>
        <path fill="#3a416f" d="M49.714 3619.695a.337.337 0 0 0-.307-.235l-2.87-.112-.991-2.728a.349.349 0 0 0-.633 0l-.99 2.728-2.87.112a.337.337 0 0 0-.307.235.346.346 0 0 0 .112.374l2.257 1.8-.782 2.8a.343.343 0 0 0 .126.368.334.334 0 0 0 .385.008l2.386-1.617 2.386 1.617a.332.332 0 0 0 .385-.008.343.343 0 0 0 .126-.368l-.782-2.8 2.257-1.8a.346.346 0 0 0 .112-.374z" transform="translate(-40.731 -3616.418)"/>
    </g>
</svg>
