<svg xmlns="http://www.w3.org/2000/svg" width="75" height="17" viewBox="0 0 75 17">
    <g>
        <path fill="none" d="M0 0H75V17H0z" transform="translate(-272 69.5) translate(272 -69.5)"/>
        <path fill="#ff5a5a" d="M-31.5-9.166h-3.313l-.114.546c.8.108.889.33.717 1.047l-1.384 5.9c-.2.819-.362 1.016-1.225 1.13l-.114.543h2.787l.114-.546c-.838-.114-.908-.292-.724-1.136l1.212-5.776L-32.508 0h1.1l1.39-2.666 2.679-4.856-1.161 6.208c-.1.54-.241.667-1.124.768l-.117.546h4.056l.114-.546c-.812-.1-.908-.222-.806-.768l1.244-6.538c.1-.533.241-.667 1.117-.768l.114-.546h-3.428l-3.333 6.417zm16.51 3.936c-.006-2.482-1.9-3.936-4.748-3.936H-23.2l-.121.546c.819.114.92.229.8.793l-1.384 6.487c-.121.559-.26.679-1.13.793l-.118.547h3.644c3.751 0 6.519-2.088 6.519-5.23zm-2.4-.317c0 2.653-1.555 4.78-4.037 4.9l-.47.019 1.682-7.909.387.019c1.6.088 2.438 1.307 2.438 2.97zm3.477-.063c1.669-.038 2.869-1.035 2.869-2.418a1.176 1.176 0 0 0-1.149-1.32 1.311 1.311 0 0 0-1.231 1.4c.546.083.914.355.914.825 0 .552-.546.939-1.282.99zm2.131 5.091A3.793 3.793 0 0 0-9.5.14c1.9 0 2.875-.99 2.875-2.114a2.029 2.029 0 0 0-1.214-1.879l-.533-.3c-.565-.336-.781-.6-.781-1 .006-.451.33-.749.92-.749a1.317 1.317 0 0 1 1.32 1.46h.5l.311-1.644a4.108 4.108 0 0 0-2.126-.489c-1.727 0-2.8.838-2.8 2.044a2.076 2.076 0 0 0 1.27 1.847l.533.311c.559.336.736.616.736 1.028-.006.5-.387.813-1 .813-.819 0-1.454-.578-1.492-1.669h-.489zM.13-3.605c0-2.66 1.435-4.989 3.326-4.989 1.219 0 1.9.793 1.955 2.33l.489.019.387-2.209a5.668 5.668 0 0 0-3.212-.889 5.045 5.045 0 0 0-5.287 5.204A4.071 4.071 0 0 0 2.123.184 4.928 4.928 0 0 0 4.853-.5l.489-2.285-.5.006C4.281-1.352 3.374-.565 2.339-.565 1.006-.565.13-1.771.13-3.605zM10.285-9.5l-2.964.33-.108.521.438.1c.324.089.387.209.311.552L6.26 0h2.006L9.1-3.929c.216-.978.863-1.6 1.428-1.6.508 0 .749.4.59 1.13l-.6 2.907c-.229 1.085.159 1.6 1.054 1.6a2.5 2.5 0 0 0 1.86-.787l.121-.552a1.179 1.179 0 0 1-.685.231c-.3 0-.419-.209-.324-.641L13.11-4.3c.3-1.428-.241-2.272-1.549-2.272a2.532 2.532 0 0 0-2.349 1.741zM17.234.14a3.7 3.7 0 0 0 3.732-3.815 2.7 2.7 0 0 0-2.837-2.9A3.7 3.7 0 0 0 14.4-2.761 2.692 2.692 0 0 0 17.234.14zm.057-.7c-.552 0-.882-.5-.876-1.511 0-1.549.559-3.8 1.657-3.8.552 0 .876.5.876 1.517-.006 1.542-.565 3.789-1.657 3.789zm7-6.894a1.108 1.108 0 0 0 1.124-1.1 1.007 1.007 0 0 0-1.035-1.018 1.109 1.109 0 0 0-1.124 1.1 1 1 0 0 0 1.035 1.014zm.806.946l-2.964.349-.108.521.432.1c.324.089.387.209.311.552l-.743 3.5c-.235 1.085.165 1.6 1.054 1.6a2.511 2.511 0 0 0 1.866-.787l.121-.552a1.176 1.176 0 0 1-.673.225c-.311 0-.425-.209-.336-.641zM28.6.146a2.91 2.91 0 0 0 2.348-1.054l.121-.565a2.113 2.113 0 0 1-1.409.54c-.958 0-1.631-.692-1.631-2.05 0-1.619.781-2.895 1.873-2.895a1.267 1.267 0 0 1 .451.076.9.9 0 0 0-.641.87.892.892 0 0 0 .914.9.958.958 0 0 0 .989-.968c0-.87-.743-1.581-2.057-1.581a3.671 3.671 0 0 0-3.605 3.891A2.6 2.6 0 0 0 28.6.146zm6.124 0a2.887 2.887 0 0 0 2.342-1.054l.121-.565a2.1 2.1 0 0 1-1.428.54c-.863 0-1.511-.552-1.606-1.746l.381-.114c2.095-.6 3.25-1.212 3.25-2.342 0-.87-.806-1.441-2.05-1.441a3.731 3.731 0 0 0-3.65 3.9 2.589 2.589 0 0 0 2.64 2.822zm.92-6.043c.387 0 .565.26.565.679 0 .819-.7 1.523-1.79 1.866l-.273.1c.063-1.496.679-2.648 1.498-2.648z" transform="translate(-272 69.5) translate(308.932 -56.5)"/>
    </g>
</svg>
